<mxfile host="app.diagrams.net" agent="Mozilla/5.0 (Windows NT 10.0; Win64; x64) AppleWebKit/537.36 (KHTML, like Gecko) Chrome/132.0.0.0 Safari/537.36" version="26.0.11">
  <diagram name="Página-1" id="cqVzfbIpKd8ND-rhwggv">
    <mxGraphModel dx="2634" dy="1668" grid="0" gridSize="10" guides="1" tooltips="1" connect="1" arrows="1" fold="1" page="0" pageScale="1" pageWidth="827" pageHeight="1169" math="0" shadow="0">
      <root>
        <mxCell id="0" />
        <mxCell id="1" parent="0" />
        <mxCell id="yGVP1QWEZ6DCQs7CZusx-25" value="USUARIO" style="swimlane;fontStyle=0;childLayout=stackLayout;horizontal=1;startSize=30;horizontalStack=0;resizeParent=1;resizeParentMax=0;resizeLast=0;collapsible=1;marginBottom=0;whiteSpace=wrap;html=1;fillColor=#d5e8d4;strokeColor=#82b366;" vertex="1" parent="1">
          <mxGeometry x="-994" y="-247" width="140" height="180" as="geometry" />
        </mxCell>
        <mxCell id="yGVP1QWEZ6DCQs7CZusx-26" value="id_usuario (PK)" style="text;strokeColor=#b85450;fillColor=#f8cecc;align=left;verticalAlign=middle;spacingLeft=4;spacingRight=4;overflow=hidden;points=[[0,0.5],[1,0.5]];portConstraint=eastwest;rotatable=0;whiteSpace=wrap;html=1;" vertex="1" parent="yGVP1QWEZ6DCQs7CZusx-25">
          <mxGeometry y="30" width="140" height="30" as="geometry" />
        </mxCell>
        <mxCell id="yGVP1QWEZ6DCQs7CZusx-27" value="nombre" style="text;strokeColor=#b85450;fillColor=#f8cecc;align=left;verticalAlign=middle;spacingLeft=4;spacingRight=4;overflow=hidden;points=[[0,0.5],[1,0.5]];portConstraint=eastwest;rotatable=0;whiteSpace=wrap;html=1;" vertex="1" parent="yGVP1QWEZ6DCQs7CZusx-25">
          <mxGeometry y="60" width="140" height="30" as="geometry" />
        </mxCell>
        <mxCell id="yGVP1QWEZ6DCQs7CZusx-28" value="correo_electronico" style="text;strokeColor=#b85450;fillColor=#f8cecc;align=left;verticalAlign=middle;spacingLeft=4;spacingRight=4;overflow=hidden;points=[[0,0.5],[1,0.5]];portConstraint=eastwest;rotatable=0;whiteSpace=wrap;html=1;" vertex="1" parent="yGVP1QWEZ6DCQs7CZusx-25">
          <mxGeometry y="90" width="140" height="30" as="geometry" />
        </mxCell>
        <mxCell id="yGVP1QWEZ6DCQs7CZusx-29" value="contraseña" style="text;strokeColor=#b85450;fillColor=#f8cecc;align=left;verticalAlign=middle;spacingLeft=4;spacingRight=4;overflow=hidden;points=[[0,0.5],[1,0.5]];portConstraint=eastwest;rotatable=0;whiteSpace=wrap;html=1;" vertex="1" parent="yGVP1QWEZ6DCQs7CZusx-25">
          <mxGeometry y="120" width="140" height="30" as="geometry" />
        </mxCell>
        <mxCell id="yGVP1QWEZ6DCQs7CZusx-30" value="fecha_creacion" style="text;strokeColor=#b85450;fillColor=#f8cecc;align=left;verticalAlign=middle;spacingLeft=4;spacingRight=4;overflow=hidden;points=[[0,0.5],[1,0.5]];portConstraint=eastwest;rotatable=0;whiteSpace=wrap;html=1;" vertex="1" parent="yGVP1QWEZ6DCQs7CZusx-25">
          <mxGeometry y="150" width="140" height="30" as="geometry" />
        </mxCell>
        <mxCell id="yGVP1QWEZ6DCQs7CZusx-31" value="PRODUCTOS" style="swimlane;fontStyle=0;childLayout=stackLayout;horizontal=1;startSize=30;horizontalStack=0;resizeParent=1;resizeParentMax=0;resizeLast=0;collapsible=1;marginBottom=0;whiteSpace=wrap;html=1;fillColor=#fff2cc;strokeColor=#d6b656;" vertex="1" parent="1">
          <mxGeometry x="-287" y="-274" width="140" height="150" as="geometry" />
        </mxCell>
        <mxCell id="yGVP1QWEZ6DCQs7CZusx-32" value="id_productos(PK)" style="text;strokeColor=#b85450;fillColor=#f8cecc;align=left;verticalAlign=middle;spacingLeft=4;spacingRight=4;overflow=hidden;points=[[0,0.5],[1,0.5]];portConstraint=eastwest;rotatable=0;whiteSpace=wrap;html=1;" vertex="1" parent="yGVP1QWEZ6DCQs7CZusx-31">
          <mxGeometry y="30" width="140" height="30" as="geometry" />
        </mxCell>
        <mxCell id="yGVP1QWEZ6DCQs7CZusx-33" value="nombre" style="text;strokeColor=#b85450;fillColor=#f8cecc;align=left;verticalAlign=middle;spacingLeft=4;spacingRight=4;overflow=hidden;points=[[0,0.5],[1,0.5]];portConstraint=eastwest;rotatable=0;whiteSpace=wrap;html=1;" vertex="1" parent="yGVP1QWEZ6DCQs7CZusx-31">
          <mxGeometry y="60" width="140" height="30" as="geometry" />
        </mxCell>
        <mxCell id="yGVP1QWEZ6DCQs7CZusx-34" value="descripcion" style="text;strokeColor=#b85450;fillColor=#f8cecc;align=left;verticalAlign=middle;spacingLeft=4;spacingRight=4;overflow=hidden;points=[[0,0.5],[1,0.5]];portConstraint=eastwest;rotatable=0;whiteSpace=wrap;html=1;" vertex="1" parent="yGVP1QWEZ6DCQs7CZusx-31">
          <mxGeometry y="90" width="140" height="30" as="geometry" />
        </mxCell>
        <mxCell id="yGVP1QWEZ6DCQs7CZusx-35" value="precio" style="text;strokeColor=#b85450;fillColor=#f8cecc;align=left;verticalAlign=middle;spacingLeft=4;spacingRight=4;overflow=hidden;points=[[0,0.5],[1,0.5]];portConstraint=eastwest;rotatable=0;whiteSpace=wrap;html=1;" vertex="1" parent="yGVP1QWEZ6DCQs7CZusx-31">
          <mxGeometry y="120" width="140" height="30" as="geometry" />
        </mxCell>
        <mxCell id="yGVP1QWEZ6DCQs7CZusx-36" value="CARRITO" style="swimlane;fontStyle=0;childLayout=stackLayout;horizontal=1;startSize=30;horizontalStack=0;resizeParent=1;resizeParentMax=0;resizeLast=0;collapsible=1;marginBottom=0;whiteSpace=wrap;html=1;fillColor=#e1d5e7;strokeColor=#9673a6;" vertex="1" parent="1">
          <mxGeometry x="-739" y="-252" width="142" height="120" as="geometry" />
        </mxCell>
        <mxCell id="yGVP1QWEZ6DCQs7CZusx-37" value="id_carrito(PK)" style="text;strokeColor=#b85450;fillColor=#f8cecc;align=left;verticalAlign=middle;spacingLeft=4;spacingRight=4;overflow=hidden;points=[[0,0.5],[1,0.5]];portConstraint=eastwest;rotatable=0;whiteSpace=wrap;html=1;" vertex="1" parent="yGVP1QWEZ6DCQs7CZusx-36">
          <mxGeometry y="30" width="142" height="30" as="geometry" />
        </mxCell>
        <mxCell id="yGVP1QWEZ6DCQs7CZusx-38" value="id_usuario(FK)" style="text;strokeColor=#b85450;fillColor=#f8cecc;align=left;verticalAlign=middle;spacingLeft=4;spacingRight=4;overflow=hidden;points=[[0,0.5],[1,0.5]];portConstraint=eastwest;rotatable=0;whiteSpace=wrap;html=1;" vertex="1" parent="yGVP1QWEZ6DCQs7CZusx-36">
          <mxGeometry y="60" width="142" height="30" as="geometry" />
        </mxCell>
        <mxCell id="yGVP1QWEZ6DCQs7CZusx-39" value="fecha_creacion" style="text;strokeColor=#b85450;fillColor=#f8cecc;align=left;verticalAlign=middle;spacingLeft=4;spacingRight=4;overflow=hidden;points=[[0,0.5],[1,0.5]];portConstraint=eastwest;rotatable=0;whiteSpace=wrap;html=1;" vertex="1" parent="yGVP1QWEZ6DCQs7CZusx-36">
          <mxGeometry y="90" width="142" height="30" as="geometry" />
        </mxCell>
        <mxCell id="yGVP1QWEZ6DCQs7CZusx-40" value="DETALLE CARRITO" style="swimlane;fontStyle=0;childLayout=stackLayout;horizontal=1;startSize=30;horizontalStack=0;resizeParent=1;resizeParentMax=0;resizeLast=0;collapsible=1;marginBottom=0;whiteSpace=wrap;html=1;fillColor=#dae8fc;strokeColor=#6c8ebf;" vertex="1" parent="1">
          <mxGeometry x="-525" y="-289" width="140" height="180" as="geometry" />
        </mxCell>
        <mxCell id="yGVP1QWEZ6DCQs7CZusx-41" value="id_detalle" style="text;strokeColor=#b85450;fillColor=#f8cecc;align=left;verticalAlign=middle;spacingLeft=4;spacingRight=4;overflow=hidden;points=[[0,0.5],[1,0.5]];portConstraint=eastwest;rotatable=0;whiteSpace=wrap;html=1;" vertex="1" parent="yGVP1QWEZ6DCQs7CZusx-40">
          <mxGeometry y="30" width="140" height="30" as="geometry" />
        </mxCell>
        <mxCell id="yGVP1QWEZ6DCQs7CZusx-42" value="id_carrito(FK)" style="text;strokeColor=#b85450;fillColor=#f8cecc;align=left;verticalAlign=middle;spacingLeft=4;spacingRight=4;overflow=hidden;points=[[0,0.5],[1,0.5]];portConstraint=eastwest;rotatable=0;whiteSpace=wrap;html=1;" vertex="1" parent="yGVP1QWEZ6DCQs7CZusx-40">
          <mxGeometry y="60" width="140" height="30" as="geometry" />
        </mxCell>
        <mxCell id="yGVP1QWEZ6DCQs7CZusx-43" value="id_producto(FK)" style="text;strokeColor=#b85450;fillColor=#f8cecc;align=left;verticalAlign=middle;spacingLeft=4;spacingRight=4;overflow=hidden;points=[[0,0.5],[1,0.5]];portConstraint=eastwest;rotatable=0;whiteSpace=wrap;html=1;" vertex="1" parent="yGVP1QWEZ6DCQs7CZusx-40">
          <mxGeometry y="90" width="140" height="30" as="geometry" />
        </mxCell>
        <mxCell id="yGVP1QWEZ6DCQs7CZusx-44" value="cantidad" style="text;strokeColor=#b85450;fillColor=#f8cecc;align=left;verticalAlign=middle;spacingLeft=4;spacingRight=4;overflow=hidden;points=[[0,0.5],[1,0.5]];portConstraint=eastwest;rotatable=0;whiteSpace=wrap;html=1;" vertex="1" parent="yGVP1QWEZ6DCQs7CZusx-40">
          <mxGeometry y="120" width="140" height="30" as="geometry" />
        </mxCell>
        <mxCell id="yGVP1QWEZ6DCQs7CZusx-45" value="fecha_agregado" style="text;strokeColor=#b85450;fillColor=#f8cecc;align=left;verticalAlign=middle;spacingLeft=4;spacingRight=4;overflow=hidden;points=[[0,0.5],[1,0.5]];portConstraint=eastwest;rotatable=0;whiteSpace=wrap;html=1;" vertex="1" parent="yGVP1QWEZ6DCQs7CZusx-40">
          <mxGeometry y="150" width="140" height="30" as="geometry" />
        </mxCell>
        <mxCell id="yGVP1QWEZ6DCQs7CZusx-46" style="edgeStyle=none;curved=0;rounded=0;orthogonalLoop=1;jettySize=auto;html=1;fontSize=12;startSize=8;endSize=8;endArrow=ERzeroToMany;endFill=0;startArrow=ERmandOne;startFill=0;" edge="1" parent="1" source="yGVP1QWEZ6DCQs7CZusx-26" target="yGVP1QWEZ6DCQs7CZusx-38">
          <mxGeometry relative="1" as="geometry">
            <mxPoint x="-848" y="-168.00170940170946" as="sourcePoint" />
            <mxPoint x="-754" y="-167.19829059829053" as="targetPoint" />
            <Array as="points">
              <mxPoint x="-818" y="-205" />
              <mxPoint x="-813" y="-177" />
              <mxPoint x="-765" y="-177" />
            </Array>
          </mxGeometry>
        </mxCell>
        <mxCell id="yGVP1QWEZ6DCQs7CZusx-47" style="edgeStyle=none;curved=0;rounded=0;orthogonalLoop=1;jettySize=auto;html=1;entryX=0;entryY=0.5;entryDx=0;entryDy=0;fontSize=12;startSize=8;endSize=8;startArrow=ERmandOne;startFill=0;endArrow=ERoneToMany;endFill=0;exitX=1;exitY=0.5;exitDx=0;exitDy=0;strokeColor=default;" edge="1" parent="1" source="yGVP1QWEZ6DCQs7CZusx-37" target="yGVP1QWEZ6DCQs7CZusx-42">
          <mxGeometry relative="1" as="geometry" />
        </mxCell>
        <mxCell id="yGVP1QWEZ6DCQs7CZusx-50" style="edgeStyle=none;curved=1;rounded=0;orthogonalLoop=1;jettySize=auto;html=1;entryX=0.05;entryY=0.867;entryDx=0;entryDy=0;entryPerimeter=0;fontSize=12;startSize=8;endSize=8;endArrow=ERmandOne;endFill=0;startArrow=ERzeroToMany;startFill=0;" edge="1" parent="1" source="yGVP1QWEZ6DCQs7CZusx-43" target="yGVP1QWEZ6DCQs7CZusx-32">
          <mxGeometry relative="1" as="geometry" />
        </mxCell>
        <mxCell id="yGVP1QWEZ6DCQs7CZusx-51" value="Un usuario puede tener multiples carritos pero un carrito no puede tener multiples usuarios (CARDINALIDAD)" style="shape=callout;whiteSpace=wrap;html=1;perimeter=calloutPerimeter;" vertex="1" parent="1">
          <mxGeometry x="-944" y="-398" width="167" height="141" as="geometry" />
        </mxCell>
        <mxCell id="yGVP1QWEZ6DCQs7CZusx-52" value="Un carrito puede tener (n) detalles carrito, un DETALLE CARRITO debe tener un carrito" style="shape=callout;whiteSpace=wrap;html=1;perimeter=calloutPerimeter;rotation=10;" vertex="1" parent="1">
          <mxGeometry x="-653" y="-400" width="132" height="120" as="geometry" />
        </mxCell>
        <mxCell id="yGVP1QWEZ6DCQs7CZusx-53" value="Un DETALLE CARRITO puede tener un producto, un PRODUCTO puede estar múltiples veces en DETALLE CARRITO o NO" style="shape=callout;whiteSpace=wrap;html=1;perimeter=calloutPerimeter;rotation=15;" vertex="1" parent="1">
          <mxGeometry x="-312" y="-446" width="162" height="141" as="geometry" />
        </mxCell>
      </root>
    </mxGraphModel>
  </diagram>
</mxfile>
